<?xml version="1.0" encoding="UTF-8" standalone="no"?>
<!-- Filename: d4e178b2686d2a3bb04ddc2f9950b8312439192c5e0ccb6954acb2d7e8494d3e.svg -->
<!-- Created with https://svgstud.io -->
<svg
  version="1.1"
  xmlns="http://www.w3.org/2000/svg"
  xmlns:xlink="http://www.w3.org/1999/xlink"
  xmlns:svg="http://www.w3.org/2000/svg"
  xmlns:rdf="http://www.w3.org/1999/02/22-rdf-syntax-ns#"
  xmlns:cc="http://creativecommons.org/ns#"
  xmlns:dc="http://purl.org/dc/elements/1.1/"
  viewBox="0 0 768 768"
  width="768"
  height="768"
  role="img"
  aria-labelledby="titleID descID"
>
  <title id="titleID">create a logo with the letters jt</title>
  <desc id="descID">AI-generated SVG illustration: create a logo with the letters jt, created on https://svgstud.io</desc>

  <rect width="100%" height="100%" fill="white" />

  <image
    href="https://svgstud.io/pngs/d4e178b2686d2a3bb04ddc2f9950b8312439192c5e0ccb6954acb2d7e8494d3e.png"
    x="0" y="0"
    width="768" height="768"
    preserveAspectRatio="xMidYMid meet"
    opacity="0"
  />

  <metadata>
    Created by https://svgstud.io and licensed under CC-BY-SA 4.0 license. Please attribute https://svgstud.io
  </metadata>
  <metadata>
    create a logo with the letters jt
  </metadata>
  <metadata>
    7
  </metadata>
  <metadata>
    <rdf:RDF
      xmlns:rdf="http://www.w3.org/1999/02/22-rdf-syntax-ns#"
      xmlns:cc="http://creativecommons.org/ns#"
      xmlns:dc="http://purl.org/dc/elements/1.1/"
    >
      <cc:Work rdf:about="">
        <cc:license rdf:resource="http://creativecommons.org/licenses/by-sa/4.0/" />
        <dc:creator>
          <cc:Agent>
            <dc:title>https://svgstud.io</dc:title>
          </cc:Agent>
        </dc:creator>
      </cc:Work>
      <cc:License rdf:about="http://creativecommons.org/licenses/by-sa/4.0/">
        <cc:permits rdf:resource="http://creativecommons.org/ns#Reproduction" />
        <cc:permits rdf:resource="http://creativecommons.org/ns#Distribution" />
        <cc:requires rdf:resource="http://creativecommons.org/ns#Notice" />
        <cc:requires rdf:resource="http://creativecommons.org/ns#Attribution" />
        <cc:permits rdf:resource="http://creativecommons.org/ns#DerivativeWorks" />
        <cc:requires rdf:resource="http://creativecommons.org/ns#ShareAlike" />
      </cc:License>
    </rdf:RDF>
  </metadata>
  <metadata id="uid">d4e178b2686d2a3bb04ddc2f9950b8312439192c5e0ccb6954acb2d7e8494d3e</metadata>

  <path stroke="none" fill="black" fill-rule="evenodd" d="M377.00,578.89C365.47,578.85 355.41,578.20 347.50,577.00C340.90,576.00 331.77,574.23 327.22,573.06C322.66,571.89 314.79,569.43 309.72,567.57C304.65,565.72 297.41,562.80 293.63,561.09C289.85,559.38 282.43,555.43 277.13,552.32C271.83,549.22 264.26,544.28 260.30,541.37C256.34,538.45 249.86,533.01 245.90,529.28C241.94,525.55 236.34,520.02 233.46,517.00C230.58,513.98 226.22,509.02 223.78,506.00C221.34,502.98 216.61,496.41 213.26,491.42C209.91,486.42 204.93,477.87 202.18,472.42C199.44,466.96 196.07,459.80 194.70,456.50C193.32,453.20 190.81,446.00 189.10,440.50C187.40,435.00 184.88,425.10 183.51,418.50C182.14,411.90 180.51,400.43 179.88,393.00C179.20,385.01 179.00,372.98 179.38,363.50C179.73,354.70 180.68,342.86 181.49,337.20C182.30,331.53 183.93,322.78 185.11,317.75C186.29,312.73 188.97,303.81 191.07,297.93C193.17,292.05 196.90,283.02 199.37,277.87C201.84,272.72 206.00,265.12 208.63,261.00C211.25,256.88 216.71,249.14 220.75,243.81C224.80,238.49 233.62,228.81 240.34,222.31C248.17,214.75 256.70,207.72 264.03,202.81C270.34,198.58 279.32,193.09 284.00,190.62C288.68,188.14 297.73,184.09 304.13,181.62C310.52,179.15 319.97,175.99 325.13,174.60C330.28,173.20 338.55,171.34 343.50,170.46C348.45,169.58 359.93,168.60 369.00,168.29C379.15,167.94 389.54,168.19 396.00,168.92C401.77,169.58 411.68,171.26 418.00,172.66C424.32,174.05 434.45,177.00 440.50,179.20C446.55,181.41 457.35,186.11 464.50,189.67C471.65,193.22 481.55,198.87 486.50,202.22C491.45,205.58 498.88,211.05 503.00,214.39C507.12,217.72 515.01,224.98 520.53,230.50C526.04,236.03 534.39,245.72 539.09,252.03C543.79,258.34 550.00,267.45 552.89,272.27C555.79,277.09 560.40,285.79 563.14,291.61C565.88,297.42 569.87,307.42 572.01,313.84C574.14,320.25 576.82,330.11 577.96,335.74C579.10,341.37 580.53,350.82 581.14,356.74C581.76,362.83 581.99,374.01 581.67,382.50C581.35,390.75 580.19,402.68 579.09,409.00C578.00,415.32 575.97,424.39 574.59,429.14C573.21,433.89 570.23,442.44 567.97,448.14C565.71,453.84 561.38,463.20 558.36,468.94C555.33,474.68 549.68,484.01 545.80,489.66C541.92,495.31 534.82,504.34 530.04,509.72C525.25,515.10 518.00,522.46 513.92,526.07C509.84,529.69 503.57,534.92 500.00,537.70C496.43,540.48 489.90,545.10 485.50,547.98C481.10,550.85 471.65,556.05 464.50,559.52C457.35,563.00 446.55,567.44 440.50,569.40C434.45,571.36 426.12,573.67 422.00,574.53C417.88,575.39 410.00,576.74 404.50,577.53C398.63,578.37 387.27,578.93 377.00,578.89zM371.64,555.83C375.57,555.92 383.45,555.53 389.14,554.95C394.84,554.37 403.77,553.02 409.00,551.94C414.23,550.86 423.45,548.37 429.50,546.39C435.55,544.42 445.90,540.22 452.50,537.07C459.10,533.91 469.90,527.69 476.50,523.25C483.10,518.81 493.00,511.15 498.50,506.22C504.00,501.30 511.39,493.95 514.92,489.89C518.45,485.82 523.64,479.35 526.46,475.50C529.28,471.65 533.87,464.90 536.66,460.50C539.45,456.10 543.17,449.65 544.92,446.17C546.68,442.69 549.65,436.01 551.54,431.34C553.42,426.66 556.30,417.36 557.92,410.67C559.55,403.97 561.35,393.58 561.94,387.58C562.52,381.57 563.00,370.86 563.00,363.79C563.00,356.71 562.52,346.55 561.94,341.21C561.35,335.87 559.95,327.00 558.83,321.50C557.70,316.00 555.65,308.37 554.27,304.55C552.89,300.72 549.63,293.07 547.02,287.54C544.41,282.02 540.36,274.36 538.01,270.52C535.67,266.69 531.40,260.39 528.53,256.53C525.67,252.66 520.02,245.98 515.99,241.67C511.96,237.37 504.67,230.46 499.79,226.32C494.91,222.18 486.04,215.53 480.07,211.55C474.11,207.56 464.79,202.03 459.36,199.26C453.94,196.49 444.55,192.42 438.50,190.21C432.45,188.00 423.23,185.03 418.00,183.62C412.77,182.21 402.88,180.32 396.00,179.41C387.12,178.25 379.88,177.94 371.00,178.36C364.12,178.69 354.90,179.65 350.50,180.50C346.10,181.35 338.45,183.15 333.50,184.50C328.55,185.85 320.96,188.32 316.64,189.99C312.32,191.67 304.24,195.32 298.69,198.10C293.14,200.89 284.42,205.81 279.31,209.02C274.20,212.23 266.75,217.54 262.76,220.82C258.77,224.10 251.41,231.00 246.40,236.14C241.40,241.29 233.90,250.09 229.75,255.69C225.59,261.30 219.96,269.85 217.24,274.69C214.51,279.54 210.69,287.12 208.76,291.54C206.82,295.95 203.85,303.88 202.16,309.16C200.47,314.43 198.19,323.19 197.09,328.62C195.99,334.05 194.62,343.16 194.05,348.86C193.47,354.55 193.00,363.68 193.00,369.15C193.00,374.61 193.47,383.45 194.06,388.79C194.64,394.13 196.24,403.61 197.63,409.85C199.01,416.09 201.93,426.36 204.10,432.68C206.28,438.99 210.47,448.96 213.42,454.83C216.38,460.70 221.47,469.57 224.75,474.55C228.02,479.53 233.58,486.95 237.09,491.05C240.61,495.15 246.64,501.59 250.49,505.36C254.35,509.13 261.10,515.04 265.50,518.48C269.90,521.92 275.98,526.30 279.00,528.22C282.02,530.13 287.05,533.11 290.18,534.84C293.30,536.57 300.77,539.99 306.78,542.46C312.80,544.92 322.09,548.07 327.43,549.46C332.78,550.85 341.28,552.66 346.33,553.48C351.37,554.31 357.52,555.13 360.00,555.32C362.48,555.50 367.71,555.73 371.64,555.83zM405.50,476.98C404.40,476.99 402.09,476.13 400.37,475.08C398.64,474.03 396.51,472.13 395.62,470.86C394.16,468.78 394.00,459.65 394.00,376.40C394.00,303.86 394.27,284.04 395.25,283.27C395.94,282.73 403.59,280.62 412.26,278.57C426.31,275.24 428.53,274.43 432.76,271.04C435.37,268.94 439.50,265.16 441.94,262.64C444.38,260.11 446.09,257.75 445.73,257.40C445.38,257.05 432.13,260.03 416.30,264.02C400.46,268.01 386.52,271.88 385.32,272.62C383.13,273.96 383.13,273.96 382.80,343.73C382.47,413.50 382.47,413.50 380.15,420.00C378.88,423.57 376.45,428.93 374.76,431.90C373.07,434.87 368.82,440.33 365.33,444.03C361.03,448.59 357.29,451.49 353.74,453.02C350.86,454.26 343.32,456.33 337.00,457.61C330.68,458.90 316.73,461.35 306.00,463.07C295.27,464.79 282.26,466.76 277.07,467.46C271.08,468.27 266.47,468.42 264.43,467.85C262.67,467.37 259.42,465.01 257.22,462.63C253.22,458.28 253.22,458.28 252.62,444.89C252.29,437.53 251.91,406.28 251.76,375.46C251.52,323.60 251.63,319.23 253.24,316.76C254.54,314.78 256.99,313.46 262.74,311.65C267.01,310.31 278.71,307.30 288.74,304.97C306.98,300.72 306.98,300.72 311.50,302.45C313.99,303.40 316.49,305.06 317.07,306.13C317.76,307.42 318.09,322.90 318.03,351.23C317.97,379.84 317.59,394.79 316.89,395.63C316.31,396.33 310.81,399.37 304.67,402.39C298.53,405.40 292.28,408.67 290.79,409.64C289.30,410.62 287.73,411.06 287.29,410.62C286.86,410.19 286.27,391.54 286.00,369.17C285.54,332.16 285.65,328.36 287.16,326.91C288.08,326.04 292.35,324.12 296.66,322.65C300.97,321.19 306.07,319.20 308.00,318.24C311.22,316.63 311.50,316.14 311.50,312.00C311.50,307.86 311.29,307.48 308.80,307.19C307.32,307.02 295.76,309.41 283.11,312.52C270.47,315.62 259.62,318.76 259.01,319.49C258.24,320.42 257.95,330.16 258.06,351.17C258.15,367.85 258.51,397.33 258.86,416.67C259.21,436.01 259.83,452.17 260.24,452.57C260.65,452.98 263.39,451.03 266.34,448.24C270.11,444.67 273.26,442.70 276.94,441.61C279.81,440.76 294.39,438.01 309.33,435.51C324.27,433.01 338.46,430.24 340.86,429.36C343.25,428.48 346.81,426.35 348.78,424.63C350.74,422.91 353.79,419.23 355.57,416.45C357.35,413.68 359.52,408.98 360.40,406.02C361.79,401.35 362.00,392.69 362.00,340.47C362.00,280.30 362.00,280.30 364.85,276.36C366.42,274.20 369.09,271.26 370.78,269.84C372.48,268.41 377.25,265.83 381.39,264.11C385.52,262.39 394.25,259.44 400.77,257.57C407.30,255.69 418.00,253.04 424.57,251.68C431.13,250.32 438.52,248.93 441.00,248.58C444.55,248.09 446.45,248.44 450.00,250.23C454.50,252.50 454.50,252.50 454.50,286.16C454.50,304.67 454.81,320.13 455.18,320.51C455.55,320.88 459.02,320.47 462.88,319.60C466.74,318.72 472.29,318.00 475.22,318.00C478.53,318.00 481.44,318.62 482.88,319.63C484.16,320.53 485.84,322.76 486.61,324.60C487.62,327.02 487.99,332.65 487.98,345.22C487.96,354.72 487.55,364.25 487.05,366.40C486.55,368.54 485.62,370.61 484.99,371.01C484.35,371.40 474.08,374.53 462.17,377.97C450.25,381.41 438.35,385.14 435.72,386.25C433.09,387.36 430.62,387.95 430.22,387.55C429.82,387.16 429.34,382.76 429.15,377.78C428.95,372.80 429.11,365.37 429.49,361.27C430.17,353.97 430.26,353.79 433.62,352.39C435.50,351.60 445.02,348.68 454.77,345.90C464.52,343.12 473.29,340.13 474.25,339.27C475.21,338.40 476.02,336.52 476.04,335.10C476.07,333.67 476.70,330.78 477.45,328.68C478.63,325.36 478.61,324.79 477.31,324.29C476.48,323.97 471.24,324.73 465.65,325.98C460.07,327.22 449.71,329.82 442.64,331.75C432.03,334.64 429.62,335.01 428.90,333.88C428.42,333.12 428.02,320.31 428.02,305.42C428.01,290.52 427.77,278.10 427.48,277.82C427.20,277.53 420.79,279.19 413.23,281.49C399.50,285.68 399.50,285.68 399.20,300.59C399.04,308.79 399.35,348.30 399.90,388.39C400.48,431.10 401.28,461.68 401.83,462.23C402.41,462.81 404.47,461.86 407.30,459.70C409.80,457.80 415.14,454.98 419.17,453.44C423.20,451.91 427.18,450.04 428.00,449.29C429.19,448.21 429.60,444.13 430.00,429.35C430.50,410.77 430.50,410.77 437.50,408.96C441.35,407.97 449.84,405.30 456.38,403.03C462.91,400.76 471.01,397.61 474.38,396.02C477.74,394.43 481.73,392.33 483.23,391.34C485.02,390.17 486.30,389.90 486.94,390.54C487.49,391.09 488.03,392.87 488.15,394.51C488.27,396.16 488.28,409.08 488.18,423.23C488.00,448.97 488.00,448.97 485.25,452.02C483.15,454.34 479.67,456.01 470.50,459.07C463.90,461.27 449.80,465.55 439.17,468.57C428.53,471.59 417.06,474.72 413.67,475.52C410.27,476.32 406.60,476.98 405.50,476.98zM529.58,449.19C528.71,450.43 528.00,451.16 528.00,450.81C528.00,450.46 529.57,446.07 531.48,441.05C533.40,436.03 536.30,427.33 537.94,421.71C539.57,416.10 541.63,407.23 542.51,402.00C543.39,396.77 544.36,385.07 544.67,376.00C545.08,363.83 544.80,356.32 543.62,347.39C542.74,340.73 540.90,330.99 539.54,325.74C538.17,320.49 535.70,312.77 534.03,308.58C532.37,304.39 529.45,297.88 527.56,294.12C525.67,290.36 520.99,282.61 517.16,276.89C513.34,271.18 505.66,261.71 500.11,255.85C494.55,249.99 485.84,241.83 480.75,237.71C475.66,233.59 468.06,228.14 463.85,225.60C459.65,223.06 451.54,218.75 445.84,216.02C440.14,213.30 430.75,209.53 424.99,207.64C419.22,205.76 409.77,203.22 404.00,202.01C398.20,200.80 387.86,199.57 380.91,199.27C373.96,198.97 363.30,199.25 357.10,199.90C350.93,200.55 339.83,202.60 332.44,204.46C324.29,206.51 314.52,209.87 307.65,212.97C301.42,215.79 292.68,220.21 288.25,222.80C283.81,225.38 276.61,230.31 272.25,233.74C267.90,237.17 260.01,244.37 254.73,249.74C249.45,255.11 243.39,261.75 241.26,264.50C239.14,267.25 236.01,271.52 234.33,274.00C232.64,276.48 227.78,285.35 223.54,293.72C217.60,305.44 215.26,311.32 213.38,319.22C212.04,324.88 210.05,334.74 208.96,341.13C207.87,347.53 206.59,356.76 206.12,361.63C205.27,370.50 205.27,370.50 205.14,363.80C205.06,360.11 205.92,350.66 207.05,342.80C208.18,334.93 209.80,326.02 210.63,323.00C211.47,319.98 213.73,312.55 215.65,306.50C217.57,300.45 221.52,290.51 224.43,284.42C227.34,278.32 232.35,269.55 235.56,264.92C238.77,260.29 246.82,251.08 253.45,244.45C260.08,237.82 269.55,229.40 274.50,225.75C279.45,222.09 287.10,217.10 291.50,214.65C295.90,212.20 303.55,208.52 308.50,206.47C313.45,204.42 321.77,201.47 327.00,199.91C332.23,198.35 340.77,196.29 346.00,195.32C352.77,194.07 360.52,193.58 373.00,193.59C386.79,193.61 393.04,194.09 402.50,195.85C409.10,197.08 420.55,200.10 427.93,202.57C435.32,205.03 446.35,209.46 452.43,212.42C458.52,215.38 467.10,220.16 471.50,223.04C475.90,225.93 483.17,231.15 487.66,234.66C492.15,238.16 500.14,245.57 505.42,251.12C510.69,256.67 517.75,265.31 521.10,270.31C524.45,275.32 529.40,283.82 532.10,289.20C534.80,294.59 538.16,302.03 539.55,305.74C540.95,309.45 543.40,317.66 544.99,323.99C546.58,330.32 548.41,339.53 549.06,344.46C549.82,350.18 550.05,360.66 549.71,373.46C549.31,388.36 548.64,395.95 547.10,403.08C545.96,408.34 543.87,416.22 542.45,420.58C541.03,424.93 537.91,432.65 535.51,437.72C533.12,442.79 530.45,447.95 529.58,449.19zM327.14,414.59C321.50,415.01 321.50,415.01 327.00,412.42C330.02,411.00 333.29,409.13 334.25,408.26C335.88,406.80 336.00,402.32 336.01,341.60C336.01,301.59 336.39,275.12 337.00,272.93C337.55,270.96 339.01,268.41 340.25,267.26C341.49,266.10 344.98,264.22 348.00,263.08C351.02,261.93 358.90,259.91 365.50,258.59C372.10,257.27 379.19,255.90 381.25,255.55C383.31,255.20 385.00,255.14 385.00,255.42C385.00,255.70 384.16,256.38 383.14,256.92C382.12,257.47 373.46,260.17 363.89,262.93C350.08,266.91 346.04,268.48 344.25,270.53C342.00,273.11 342.00,273.11 342.00,339.11C342.00,396.14 341.79,405.50 340.48,408.03C339.65,409.65 337.57,411.69 335.87,412.57C334.17,413.45 330.24,414.36 327.14,414.59zM267.49,394.85C267.22,395.11 267.06,383.90 267.13,369.92C267.24,348.76 267.42,345.84 268.19,352.50C268.70,356.90 268.86,368.12 268.55,377.43C268.23,386.74 267.75,394.58 267.49,394.85z" />

</svg>
