<?xml version="1.0" encoding="UTF-8" standalone="no"?>
<!-- Created with Inkscape (http://www.inkscape.org/) -->

<svg
   width="210mm"
   height="297mm"
   viewBox="0 0 210 297"
   version="1.1"
   id="svg1"
   xml:space="preserve"
   inkscape:version="1.4 (86a8ad7, 2024-10-11)"
   sodipodi:docname="jtLogoDark.svg"
   xmlns:inkscape="http://www.inkscape.org/namespaces/inkscape"
   xmlns:sodipodi="http://sodipodi.sourceforge.net/DTD/sodipodi-0.dtd"
   xmlns="http://www.w3.org/2000/svg"
   xmlns:svg="http://www.w3.org/2000/svg"><sodipodi:namedview
     id="namedview1"
     pagecolor="#505050"
     bordercolor="#ffffff"
     borderopacity="1"
     inkscape:showpageshadow="0"
     inkscape:pageopacity="0"
     inkscape:pagecheckerboard="1"
     inkscape:deskcolor="#505050"
     inkscape:document-units="mm"
     inkscape:zoom="0.70822811"
     inkscape:cx="396.76482"
     inkscape:cy="730.69678"
     inkscape:window-width="1920"
     inkscape:window-height="991"
     inkscape:window-x="1911"
     inkscape:window-y="137"
     inkscape:window-maximized="1"
     inkscape:current-layer="g1" /><defs
     id="defs1" /><g
     inkscape:label="Layer 1"
     inkscape:groupmode="layer"
     id="layer1"><g
       id="g1"
       transform="matrix(0.26458333,0,0,0.26458333,0.87617925,25.454128)"><image
         href="https://svgstud.io/pngs/d4e178b2686d2a3bb04ddc2f9950b8312439192c5e0ccb6954acb2d7e8494d3e.png"
         x="0"
         y="0"
         width="768"
         height="768"
         preserveAspectRatio="xMidYMid"
         opacity="0"
         id="image1"
         style="display:none" /><path
         style="display:inline;fill:#ffffff"
         d="m 267.49,394.85 c -0.27,0.26 -0.43,-10.95 -0.36,-24.93 0.11,-21.16 0.29,-24.08 1.06,-17.42 0.51,4.4 0.67,15.62 0.36,24.93 -0.32,9.31 -0.8,17.15 -1.06,17.42 z"
         id="path6" /><path
         style="display:inline;fill:#ffffff"
         d="m 327.14,414.59 c -5.64,0.42 -5.64,0.42 -0.14,-2.17 3.02,-1.42 6.29,-3.29 7.25,-4.16 1.63,-1.46 1.75,-5.94 1.76,-66.66 0,-40.01 0.38,-66.48 0.99,-68.67 0.55,-1.97 2.01,-4.52 3.25,-5.67 1.24,-1.16 4.73,-3.04 7.75,-4.18 3.02,-1.15 10.9,-3.17 17.5,-4.49 6.6,-1.32 13.69,-2.69 15.75,-3.04 2.06,-0.35 3.75,-0.41 3.75,-0.13 0,0.28 -0.84,0.96 -1.86,1.5 -1.02,0.55 -9.68,3.25 -19.25,6.01 -13.81,3.98 -17.85,5.55 -19.64,7.6 -2.25,2.58 -2.25,2.58 -2.25,68.58 0,57.03 -0.21,66.39 -1.52,68.92 -0.83,1.62 -2.91,3.66 -4.61,4.54 -1.7,0.88 -5.63,1.79 -8.73,2.02 z"
         id="path5" /><path
         style="display:inline;fill:#ffffff"
         d="m 529.58,449.19 c -0.87,1.24 -1.58,1.97 -1.58,1.62 0,-0.35 1.57,-4.74 3.48,-9.76 1.92,-5.02 4.82,-13.72 6.46,-19.34 1.63,-5.61 3.69,-14.48 4.57,-19.71 0.88,-5.23 1.85,-16.93 2.16,-26 0.41,-12.17 0.13,-19.68 -1.05,-28.61 -0.88,-6.66 -2.72,-16.4 -4.08,-21.65 -1.37,-5.25 -3.84,-12.97 -5.51,-17.16 -1.66,-4.19 -4.58,-10.7 -6.47,-14.46 -1.89,-3.76 -6.57,-11.51 -10.4,-17.23 -3.82,-5.71 -11.5,-15.18 -17.05,-21.04 -5.56,-5.86 -14.27,-14.02 -19.36,-18.14 -5.09,-4.12 -12.69,-9.57 -16.9,-12.11 -4.2,-2.54 -12.31,-6.85 -18.01,-9.58 -5.7,-2.72 -15.09,-6.49 -20.85,-8.38 -5.77,-1.88 -15.22,-4.42 -20.99,-5.63 -5.8,-1.21 -16.14,-2.44 -23.09,-2.74 -6.95,-0.3 -17.61,-0.02 -23.81,0.63 -6.17,0.65 -17.27,2.7 -24.66,4.56 -8.15,2.05 -17.92,5.41 -24.79,8.51 -6.23,2.82 -14.97,7.24 -19.4,9.83 -4.44,2.58 -11.64,7.51 -16,10.94 -4.35,3.43 -12.24,10.63 -17.52,16 -5.28,5.37 -11.34,12.01 -13.47,14.76 -2.12,2.75 -5.25,7.02 -6.93,9.5 -1.69,2.48 -6.55,11.35 -10.79,19.72 -5.94,11.72 -8.28,17.6 -10.16,25.5 -1.34,5.66 -3.33,15.52 -4.42,21.91 -1.09,6.4 -2.37,15.63 -2.84,20.5 -0.85,8.87 -0.85,8.87 -0.98,2.17 -0.08,-3.69 0.78,-13.14 1.91,-21 1.13,-7.87 2.75,-16.78 3.58,-19.8 0.84,-3.02 3.1,-10.45 5.02,-16.5 1.92,-6.05 5.87,-15.99 8.78,-22.08 2.91,-6.1 7.92,-14.87 11.13,-19.5 3.21,-4.63 11.26,-13.84 17.89,-20.47 6.63,-6.63 16.1,-15.05 21.05,-18.7 4.95,-3.66 12.6,-8.65 17,-11.1 4.4,-2.45 12.05,-6.13 17,-8.18 4.95,-2.05 13.27,-5 18.5,-6.56 5.23,-1.56 13.77,-3.62 19,-4.59 6.77,-1.25 14.52,-1.74 27,-1.73 13.79,0.02 20.04,0.5 29.5,2.26 6.6,1.23 18.05,4.25 25.43,6.72 7.39,2.46 18.42,6.89 24.5,9.85 6.09,2.96 14.67,7.74 19.07,10.62 4.4,2.89 11.67,8.11 16.16,11.62 4.49,3.5 12.48,10.91 17.76,16.46 5.27,5.55 12.33,14.19 15.68,19.19 3.35,5.01 8.3,13.51 11,18.89 2.7,5.39 6.06,12.83 7.45,16.54 1.4,3.71 3.85,11.92 5.44,18.25 1.59,6.33 3.42,15.54 4.07,20.47 0.76,5.72 0.99,16.2 0.65,29 -0.4,14.9 -1.07,22.49 -2.61,29.62 -1.14,5.26 -3.23,13.14 -4.65,17.5 -1.42,4.35 -4.54,12.07 -6.94,17.14 -2.39,5.07 -5.06,10.23 -5.93,11.47 z"
         id="path3" /><path
         style="display:inline;fill:#ffffff"
         d="m 405.5,476.98 c -1.1,0.01 -3.41,-0.85 -5.13,-1.9 -1.73,-1.05 -3.86,-2.95 -4.75,-4.22 -1.46,-2.08 -1.62,-11.21 -1.62,-94.46 0,-72.54 0.27,-92.36 1.25,-93.13 0.69,-0.54 8.34,-2.65 17.01,-4.7 14.05,-3.33 16.27,-4.14 20.5,-7.53 2.61,-2.1 6.74,-5.88 9.18,-8.4 2.44,-2.53 4.15,-4.89 3.79,-5.24 -0.35,-0.35 -13.6,2.63 -29.43,6.62 -15.84,3.99 -29.78,7.86 -30.98,8.6 -2.19,1.34 -2.19,1.34 -2.52,71.11 -0.33,69.77 -0.33,69.77 -2.65,76.27 -1.27,3.57 -3.7,8.93 -5.39,11.9 -1.69,2.97 -5.94,8.43 -9.43,12.13 -4.3,4.56 -8.04,7.46 -11.59,8.99 -2.88,1.24 -10.42,3.31 -16.74,4.59 -6.32,1.29 -20.27,3.74 -31,5.46 -10.73,1.72 -23.74,3.69 -28.93,4.39 -5.99,0.81 -10.6,0.96 -12.64,0.39 -1.76,-0.48 -5.01,-2.84 -7.21,-5.22 -4,-4.35 -4,-4.35 -4.6,-17.74 -0.33,-7.36 -0.71,-38.61 -0.86,-69.43 -0.24,-51.86 -0.13,-56.23 1.48,-58.7 1.3,-1.98 3.75,-3.3 9.5,-5.11 4.27,-1.34 15.97,-4.35 26,-6.68 18.24,-4.25 18.24,-4.25 22.76,-2.52 2.49,0.95 4.99,2.61 5.57,3.68 0.69,1.29 1.02,16.77 0.96,45.1 -0.06,28.61 -0.44,43.56 -1.14,44.4 -0.58,0.7 -6.08,3.74 -12.22,6.76 -6.14,3.01 -12.39,6.28 -13.88,7.25 -1.49,0.98 -3.06,1.42 -3.5,0.98 -0.43,-0.43 -1.02,-19.08 -1.29,-41.45 -0.46,-37.01 -0.35,-40.81 1.16,-42.26 0.92,-0.87 5.19,-2.79 9.5,-4.26 4.31,-1.46 9.41,-3.45 11.34,-4.41 3.22,-1.61 3.5,-2.1 3.5,-6.24 0,-4.14 -0.21,-4.52 -2.7,-4.81 -1.48,-0.17 -13.04,2.22 -25.69,5.33 -12.64,3.1 -23.49,6.24 -24.1,6.97 -0.77,0.93 -1.06,10.67 -0.95,31.68 0.09,16.68 0.45,46.16 0.8,65.5 0.35,19.34 0.97,35.5 1.38,35.9 0.41,0.41 3.15,-1.54 6.1,-4.33 3.77,-3.57 6.92,-5.54 10.6,-6.63 2.87,-0.85 17.45,-3.6 32.39,-6.1 14.94,-2.5 29.13,-5.27 31.53,-6.15 2.39,-0.88 5.95,-3.01 7.92,-4.73 1.96,-1.72 5.01,-5.4 6.79,-8.18 1.78,-2.77 3.95,-7.47 4.83,-10.43 1.39,-4.67 1.6,-13.33 1.6,-65.55 0,-60.17 0,-60.17 2.85,-64.11 1.57,-2.16 4.24,-5.1 5.93,-6.52 1.7,-1.43 6.47,-4.01 10.61,-5.73 4.13,-1.72 12.86,-4.67 19.38,-6.54 6.53,-1.88 17.23,-4.53 23.8,-5.89 6.56,-1.36 13.95,-2.75 16.43,-3.1 3.55,-0.49 5.45,-0.14 9,1.65 4.5,2.27 4.5,2.27 4.5,35.93 0,18.51 0.31,33.97 0.68,34.35 0.37,0.37 3.84,-0.04 7.7,-0.91 3.86,-0.88 9.41,-1.6 12.34,-1.6 3.31,0 6.22,0.62 7.66,1.63 1.28,0.9 2.96,3.13 3.73,4.97 1.01,2.42 1.38,8.05 1.37,20.62 -0.02,9.5 -0.43,19.03 -0.93,21.18 -0.5,2.14 -1.43,4.21 -2.06,4.61 -0.64,0.39 -10.91,3.52 -22.82,6.96 -11.92,3.44 -23.82,7.17 -26.45,8.28 -2.63,1.11 -5.1,1.7 -5.5,1.3 -0.4,-0.39 -0.88,-4.79 -1.07,-9.77 -0.2,-4.98 -0.04,-12.41 0.34,-16.51 0.68,-7.3 0.77,-7.48 4.13,-8.88 1.88,-0.79 11.4,-3.71 21.15,-6.49 9.75,-2.78 18.52,-5.77 19.48,-6.63 0.96,-0.87 1.77,-2.75 1.79,-4.17 0.03,-1.43 0.66,-4.32 1.41,-6.42 1.18,-3.32 1.16,-3.89 -0.14,-4.39 -0.83,-0.32 -6.07,0.44 -11.66,1.69 -5.58,1.24 -15.94,3.84 -23.01,5.77 -10.61,2.89 -13.02,3.26 -13.74,2.13 -0.48,-0.76 -0.88,-13.57 -0.88,-28.46 -0.01,-14.9 -0.25,-27.32 -0.54,-27.6 -0.28,-0.29 -6.69,1.37 -14.25,3.67 -13.73,4.19 -13.73,4.19 -14.03,19.1 -0.16,8.2 0.15,47.71 0.7,87.8 0.58,42.71 1.38,73.29 1.93,73.84 0.58,0.58 2.64,-0.37 5.47,-2.53 2.5,-1.9 7.84,-4.72 11.87,-6.26 4.03,-1.53 8.01,-3.4 8.83,-4.15 1.19,-1.08 1.6,-5.16 2,-19.94 0.5,-18.58 0.5,-18.58 7.5,-20.39 3.85,-0.99 12.34,-3.66 18.88,-5.93 6.53,-2.27 14.63,-5.42 18,-7.01 3.36,-1.59 7.35,-3.69 8.85,-4.68 1.79,-1.17 3.07,-1.44 3.71,-0.8 0.55,0.55 1.09,2.33 1.21,3.97 0.12,1.65 0.13,14.57 0.03,28.72 -0.18,25.74 -0.18,25.74 -2.93,28.79 -2.1,2.32 -5.58,3.99 -14.75,7.05 -6.6,2.2 -20.7,6.48 -31.33,9.5 -10.64,3.02 -22.11,6.15 -25.5,6.95 -3.4,0.8 -7.07,1.46 -8.17,1.46 z"
         id="path2" /><path
         id="path4"
         style="display:inline;fill:#ffffff"
         d="M 383.88377 168.19972 C 379.21002 168.08972 374.07596 168.11456 369.00096 168.28956 C 359.93096 168.59956 348.45096 169.57949 343.50096 170.45949 C 338.55096 171.33949 330.27987 173.20011 325.12987 174.60011 C 319.96987 175.99011 310.51987 179.14964 304.12987 181.61964 C 297.72987 184.08964 288.68096 188.13964 284.00096 190.61964 C 279.32096 193.08964 270.34026 198.5791 264.03026 202.8091 C 256.70026 207.7191 248.1708 214.7491 240.3408 222.3091 C 233.6208 228.8091 224.80096 238.4891 220.75096 243.8091 C 216.71096 249.1391 211.24987 256.8805 208.62987 261.0005 C 205.99987 265.1205 201.8401 272.71964 199.3701 277.86964 C 196.9001 283.01964 193.16932 292.05019 191.06932 297.93019 C 188.96932 303.81019 186.29033 312.7305 185.11033 317.7505 C 183.93033 322.7805 182.29924 331.52972 181.48924 337.19972 C 180.67924 342.85972 179.72986 354.7005 179.37986 363.5005 C 178.99986 372.9805 179.19986 385.0105 179.87986 393.0005 C 180.50986 400.4305 182.14072 411.90051 183.51072 418.50051 C 184.88072 425.10051 187.40057 435.00051 189.10057 440.50051 C 190.81057 446.00051 193.32018 453.20051 194.70018 456.50051 C 196.07018 459.80051 199.44065 466.96043 202.18065 472.42043 C 204.93065 477.87043 209.91072 486.42043 213.26072 491.42043 C 216.61072 496.41043 221.34026 502.98051 223.78026 506.00051 C 226.22026 509.02051 230.57994 513.98051 233.45994 517.00051 C 236.33994 520.02051 241.9394 525.5498 245.8994 529.2798 C 249.8594 533.0098 256.33979 538.44965 260.29979 541.36965 C 264.25979 544.27965 271.82987 549.22082 277.12987 552.32082 C 282.42987 555.43082 289.84987 559.38035 293.62987 561.09035 C 297.40987 562.80035 304.64971 565.72082 309.71971 567.57082 C 314.78971 569.43082 322.65971 571.8891 327.21971 573.0591 C 331.76971 574.2291 340.90096 576.00051 347.50096 577.00051 C 355.41096 578.20051 365.47096 578.84918 377.00096 578.88918 C 387.27096 578.92918 398.63096 578.3698 404.50096 577.5298 C 410.00096 576.7398 417.88096 575.3898 422.00096 574.5298 C 426.12096 573.6698 434.45096 571.3609 440.50096 569.4009 C 446.55096 567.4409 457.35096 563.00004 464.50096 559.52004 C 471.65096 556.05004 481.10096 550.85098 485.50096 547.98098 C 489.90096 545.10098 496.43096 540.47973 500.00096 537.69973 C 503.57096 534.91973 509.84088 529.69082 513.92088 526.07082 C 518.00088 522.46082 525.25003 515.09926 530.04003 509.71926 C 534.82003 504.33926 541.91979 495.31066 545.79979 489.66066 C 549.67979 484.01066 555.33034 474.67996 558.36034 468.93996 C 561.38034 463.19996 565.70971 453.83918 567.96971 448.13918 C 570.22971 442.43918 573.21081 433.88918 574.59081 429.13918 C 575.97081 424.38918 578.00081 415.32051 579.09081 409.00051 C 580.19081 402.68051 581.35089 390.7505 581.67089 382.5005 C 581.99089 374.0105 581.75964 362.83074 581.13964 356.74074 C 580.52964 350.82074 579.09995 341.37074 577.95995 335.74074 C 576.81995 330.11074 574.14073 320.25035 572.01073 313.84035 C 569.87073 307.42035 565.87964 297.41988 563.13964 291.60988 C 560.39964 285.78988 555.78964 277.09003 552.88964 272.27003 C 549.99964 267.45003 543.79081 258.3398 539.09081 252.0298 C 534.39081 245.7198 526.04026 236.0305 520.53026 230.5005 C 515.01026 224.9805 507.12096 217.71917 503.00096 214.38917 C 498.88096 211.04917 491.45096 205.57925 486.50096 202.21925 C 481.55096 198.86925 471.65096 193.22042 464.50096 189.67042 C 457.35096 186.11042 446.55096 181.40972 440.50096 179.19972 C 434.45096 176.99972 424.32096 174.05066 418.00096 172.66066 C 411.68096 171.26066 401.77096 169.58042 396.00096 168.92042 C 392.77096 168.55542 388.55752 168.30972 383.88377 168.19972 z M 377.4033 178.1841 C 383.60205 178.14847 389.34096 178.54066 396.00096 179.41066 C 402.88096 180.32066 412.77096 182.20964 418.00096 183.61964 C 423.23096 185.02964 432.45096 187.99949 438.50096 190.20949 C 444.55096 192.41949 453.94034 196.49027 459.36034 199.26027 C 464.79034 202.03027 474.10932 207.55933 480.06932 211.54933 C 486.03932 215.52933 494.91003 222.18082 499.79003 226.32082 C 504.67003 230.46082 511.95924 237.37042 515.98924 241.67042 C 520.01924 245.98042 525.67026 252.6598 528.53026 256.5298 C 531.40026 260.3898 535.67073 266.69003 538.01073 270.52003 C 540.36073 274.36003 544.41049 282.01957 547.02049 287.53957 C 549.63049 293.06957 552.89049 300.71933 554.27049 304.54933 C 555.65049 308.36933 557.69909 316.0005 558.82909 321.5005 C 559.94909 327.0005 561.35042 335.86949 561.94042 341.20949 C 562.52042 346.54949 563.00096 356.70957 563.00096 363.78957 C 563.00096 370.85957 562.52042 381.57058 561.94042 387.58058 C 561.35042 393.58058 559.55089 403.97043 557.92089 410.67043 C 556.30089 417.36043 553.42003 426.66035 551.54003 431.34035 C 549.65003 436.01035 546.68089 442.69043 544.92089 446.17043 C 543.17089 449.65043 539.44917 456.10051 536.65917 460.50051 C 533.86917 464.90051 529.27995 471.65051 526.45995 475.50051 C 523.63995 479.35051 518.45088 485.81918 514.92088 489.88918 C 511.39088 493.94918 504.00096 501.29926 498.50096 506.21926 C 493.00096 511.14926 483.10096 518.81051 476.50096 523.25051 C 469.90096 527.69051 459.10096 533.91082 452.50096 537.07082 C 445.90096 540.22082 435.55096 544.41918 429.50096 546.38918 C 423.45096 548.36918 414.23096 550.85996 409.00096 551.93996 C 403.77096 553.01996 394.83963 554.36973 389.13963 554.94973 C 383.44963 555.52973 375.56963 555.92058 371.63963 555.83058 C 367.70963 555.73058 362.48096 555.50082 360.00096 555.32082 C 357.52096 555.13082 351.36909 554.31098 346.32909 553.48098 C 341.27909 552.66098 332.78065 550.84949 327.43065 549.45949 C 322.09065 548.06949 312.80026 544.91949 306.78026 542.45949 C 300.77026 539.98949 293.30065 536.57035 290.18065 534.84035 C 287.05065 533.11035 282.02096 530.12926 279.00096 528.21926 C 275.98096 526.29926 269.90096 521.92098 265.50096 518.48098 C 261.10096 515.04098 254.34924 509.12988 250.48924 505.35988 C 246.63924 501.58988 240.6108 495.14933 237.0908 491.04933 C 233.5808 486.94933 228.02096 479.52933 224.75096 474.54933 C 221.47096 469.56933 216.38088 460.70058 213.42088 454.83058 C 210.47088 448.96058 206.28057 438.99019 204.10057 432.68019 C 201.93057 426.36019 199.00987 416.09011 197.62987 409.85011 C 196.23987 403.61011 194.63955 394.12957 194.05955 388.78957 C 193.46955 383.44957 193.00096 374.6109 193.00096 369.1509 C 193.00096 363.6809 193.46979 354.54988 194.04979 348.85988 C 194.61979 343.15988 195.9908 334.04964 197.0908 328.61964 C 198.1908 323.18964 200.46916 314.43066 202.15916 309.16066 C 203.84916 303.88066 206.82072 295.94957 208.76072 291.53957 C 210.69072 287.11957 214.50924 279.53996 217.23924 274.68996 C 219.95924 269.84996 225.59096 261.29996 229.75096 255.68996 C 233.90096 250.08996 241.3994 241.28917 246.3994 236.13917 C 251.4094 230.99917 258.77073 224.10082 262.76073 220.82082 C 266.75073 217.54082 274.19955 212.23003 279.30955 209.02003 C 284.41955 205.81003 293.14041 200.89011 298.69041 198.10011 C 304.24041 195.32011 312.31963 191.67074 316.63963 189.99074 C 320.95963 188.32074 328.55096 185.8505 333.50096 184.5005 C 338.45096 183.1505 346.10096 181.3505 350.50096 180.5005 C 354.90096 179.6505 364.12096 178.68988 371.00096 178.35988 C 373.22096 178.25488 375.33705 178.19597 377.4033 178.1841 z " /></g></g></svg>
